<svg width="483" height="475" viewBox="0 0 483 475" fill="none" xmlns="http://www.w3.org/2000/svg">
<g clip-path="url(#clip0_1228_54)">
<path d="M345.363 220.876C310.225 214.533 285.065 225.569 265.424 242.716C245.782 259.862 239.545 286.861 179.86 298.912C120.175 310.964 99.7512 339.548 95.565 375.512C91.3788 411.475 119.667 464.056 185.907 464.056H317.138C341.219 464.056 395.365 458.517 418.622 405.407C441.879 352.297 444.966 239.121 345.363 220.876Z" fill="white"/>
<path d="M372.254 248.382C366.081 238.403 362.529 234.829 348.279 231.468C334.029 228.106 281.447 245.718 268.656 253.477C255.865 261.236 236.942 287.77 214.51 301.64C192.078 315.509 137.044 325.319 128.27 386.907C121.779 432.512 147.298 454.035 173.536 463.359C177.644 463.796 181.773 464.015 185.904 464.014H249.078C255.865 444.013 275.316 410.249 316.734 374.729C373.861 325.721 378.428 258.361 372.254 248.382Z" fill="#D6EEFF"/>
<path d="M345.363 220.876C310.225 214.533 285.065 225.569 265.424 242.716C245.782 259.862 239.545 286.861 179.86 298.912C120.175 310.964 99.7512 339.548 95.565 375.512C91.3788 411.475 119.667 464.056 185.907 464.056H317.138C341.219 464.056 395.365 458.517 418.622 405.407C441.879 352.297 444.966 239.121 345.363 220.876Z" stroke="black" stroke-width="1.58569" stroke-linecap="round" stroke-linejoin="round"/>
<path d="M93.872 395.618L67.6554 429.869L70.6153 442.11L83.3008 448.094C84.4121 444.617 86.0988 441.351 88.2905 438.432C91.779 433.907 110.913 410.185 110.913 410.185L93.872 395.618Z" fill="white" stroke="black" stroke-width="1.58569" stroke-linecap="round" stroke-linejoin="round"/>
<path d="M77.215 467.291L72.6482 474.057L0.80603 431.899L5.35166 425.154L27.9953 438.432L77.215 467.291Z" fill="white"/>
<path d="M57.6148 423.315C63.9575 422.617 66.0718 420.228 68.0592 421.623C70.0465 423.019 70.8499 427.226 66.854 429.869C65.3981 429.046 63.7838 428.541 62.1181 428.389C57.7205 427.712 39.8973 425.492 35.9226 425.133C31.9478 424.774 31.229 427.501 31.229 427.501C31.2662 425.947 31.0519 424.398 30.5946 422.913C30.5946 422.913 31.6307 420.947 35.1615 421.539C38.6922 422.131 51.3566 423.97 57.6148 423.315Z" fill="#D6EEFF"/>
<path d="M35.9214 425.133C39.8961 425.492 57.7193 427.712 62.1169 428.389C63.7826 428.541 65.3969 429.046 66.8528 429.869C68.2281 430.78 69.3428 432.033 70.0875 433.505C72.1701 437.183 75.1716 440.257 78.7984 442.428C82.5617 444.542 84.5914 444.056 84.8239 447.354C84.3251 454.608 81.6752 461.55 77.2127 467.291L27.9929 438.432C29.9797 435.121 31.0928 431.36 31.2278 427.501C31.2278 427.501 31.9466 424.795 35.9214 425.133Z" fill="white"/>
<path d="M30.5915 422.913C31.0488 424.398 31.2631 425.947 31.2259 427.501C31.0909 431.36 29.9778 435.121 27.9911 438.432L5.34741 425.133C5.34741 425.133 11.1827 415.281 30.4435 422.511C30.4435 422.511 30.507 422.659 30.5915 422.913Z" fill="white"/>
<path d="M77.215 467.291L27.9953 438.432L5.35166 425.154L0.80603 431.899L72.6482 474.057L77.215 467.291Z" stroke="black" stroke-width="1.58569" stroke-linecap="round" stroke-linejoin="round"/>
<path d="M5.34741 425.133C5.34741 425.133 11.1827 415.281 30.4435 422.511C30.4435 422.511 30.4435 422.659 30.5915 422.913C31.0488 424.398 31.2631 425.947 31.2259 427.501C31.0909 431.36 29.9778 435.121 27.9911 438.432" stroke="black" stroke-width="1.58569" stroke-linecap="round" stroke-linejoin="round"/>
<path d="M31.1639 427.501C31.1639 427.501 31.8827 424.795 35.8575 425.133C39.8323 425.471 57.6554 427.712 62.0531 428.389C63.7188 428.541 65.3331 429.046 66.789 429.869C68.1643 430.78 69.2791 432.033 70.0238 433.505C72.1064 437.183 75.1078 440.257 78.7345 442.428C82.4979 444.542 84.5275 444.056 84.7601 447.354C84.2613 454.608 81.6114 461.55 77.1488 467.291" stroke="black" stroke-width="1.58569" stroke-linecap="round" stroke-linejoin="round"/>
<path d="M30.5946 422.913C30.5946 422.913 31.6307 420.947 35.1615 421.539C38.6922 422.131 51.3566 423.97 57.6148 423.315C63.8729 422.659 66.0718 420.228 68.0592 421.623C70.0465 423.019 70.8499 427.226 66.854 429.869" stroke="black" stroke-width="1.58569" stroke-linecap="round" stroke-linejoin="round"/>
<path d="M40.2351 429.256C40.2764 429.696 40.1416 430.134 39.8603 430.475C39.5789 430.816 39.174 431.031 38.7341 431.074C38.292 431.109 37.8536 430.97 37.5135 430.685C37.1734 430.4 36.9587 429.993 36.9157 429.552L36.1758 421.095C36.1555 420.875 36.1788 420.654 36.2445 420.443C36.3101 420.233 36.4168 420.038 36.5583 419.869C36.6998 419.7 36.8734 419.56 37.0691 419.459C37.2647 419.357 37.4785 419.295 37.6981 419.277C38.1368 419.247 38.5696 419.389 38.9051 419.673C39.2405 419.958 39.4522 420.361 39.4952 420.799L40.2351 429.256Z" fill="white" stroke="black" stroke-width="1.58569" stroke-linecap="round" stroke-linejoin="round"/>
<path d="M47.2102 430.63C47.2401 431.071 47.0984 431.506 46.8147 431.845C46.531 432.184 46.1272 432.4 45.6879 432.448C45.248 432.483 44.8121 432.343 44.4754 432.058C44.1387 431.773 43.9286 431.366 43.8909 430.926L43.0028 421.666C42.9825 421.447 43.0061 421.227 43.0719 421.018C43.1378 420.809 43.2448 420.615 43.3865 420.447C43.5283 420.28 43.7019 420.143 43.8974 420.043C44.0929 419.944 44.3064 419.885 44.5251 419.869C44.7435 419.848 44.9637 419.872 45.1729 419.938C45.3821 420.004 45.5759 420.111 45.7433 420.252C45.9106 420.394 46.048 420.568 46.1474 420.763C46.2468 420.959 46.3062 421.172 46.3222 421.391L47.2102 430.63Z" fill="white" stroke="black" stroke-width="1.58569" stroke-linecap="round" stroke-linejoin="round"/>
<path d="M54.1672 431.793C54.1875 432.012 54.1642 432.234 54.0985 432.444C54.0329 432.655 53.9262 432.85 53.7847 433.019C53.6432 433.188 53.4696 433.327 53.2739 433.429C53.0783 433.531 52.8645 433.593 52.6449 433.611C52.2062 433.641 51.7734 433.498 51.4379 433.214C51.1024 432.93 50.8908 432.526 50.8478 432.089L49.833 422.11C49.8127 421.891 49.8361 421.671 49.902 421.462C49.9679 421.253 50.0749 421.059 50.2166 420.891C50.3584 420.724 50.5322 420.587 50.7277 420.487C50.9231 420.388 51.1365 420.328 51.3552 420.313C51.5719 420.292 51.7906 420.315 51.9985 420.38C52.2064 420.444 52.3993 420.549 52.5664 420.689C52.7335 420.828 52.8713 421 52.9718 421.193C53.0724 421.386 53.1338 421.597 53.1524 421.814L54.1672 431.793Z" fill="white" stroke="black" stroke-width="1.58569" stroke-linecap="round" stroke-linejoin="round"/>
<path d="M61.1227 433.061C61.143 433.281 61.1197 433.502 61.054 433.713C60.9884 433.923 60.8817 434.119 60.7402 434.288C60.5987 434.457 60.4252 434.596 60.2296 434.698C60.034 434.799 59.8201 434.861 59.6005 434.88C59.1606 434.915 58.7247 434.774 58.388 434.489C58.0513 434.204 57.841 433.797 57.8033 433.357L56.6617 422.659C56.6413 422.44 56.6647 422.218 56.7303 422.008C56.7959 421.798 56.9026 421.602 57.0441 421.433C57.1856 421.264 57.3593 421.125 57.5549 421.023C57.7505 420.922 57.9643 420.86 58.184 420.841C58.4024 420.821 58.6225 420.844 58.8316 420.91C59.0408 420.976 59.2348 421.083 59.4021 421.225C59.5695 421.366 59.7069 421.54 59.8063 421.736C59.9057 421.931 59.9651 422.145 59.981 422.363L61.1227 433.061Z" fill="white" stroke="black" stroke-width="1.58569" stroke-linecap="round" stroke-linejoin="round"/>
<path d="M153.452 304.431L90.0247 398.388L114.782 420.334L170.704 350.056C170.704 350.056 205.061 365.088 213.18 365.088H254.133C259.74 364.784 265.135 362.838 269.646 359.493C274.156 356.147 277.585 351.55 279.504 346.272C282.442 338.089 287.03 317.56 261.11 304.515L153.452 304.431Z" fill="white"/>
<path d="M261.132 304.431H153.453L130.534 338.259L159.817 363.735L170.769 349.971C170.769 349.971 205.062 365.088 213.18 365.088H254.133C259.741 364.784 265.136 362.838 269.647 359.493C274.157 356.147 277.585 351.55 279.504 346.272C282.464 338.005 286.989 317.475 261.132 304.431Z" fill="#D6EEFF"/>
<path d="M153.452 304.431L90.0247 398.388L114.782 420.334L170.704 350.056C170.704 350.056 205.061 365.088 213.18 365.088H254.133C259.74 364.784 265.135 362.838 269.646 359.493C274.156 356.147 277.585 351.55 279.504 346.272C282.442 338.089 287.03 317.56 261.11 304.515L153.452 304.431Z" stroke="black" stroke-width="1.58569" stroke-linecap="round" stroke-linejoin="round"/>
<path d="M170.705 350.056C170.705 350.056 175.737 334.981 170.895 322.951" stroke="#007DEA" stroke-width="1.58569" stroke-linecap="round" stroke-linejoin="round"/>
<path d="M95.5623 390.079L120.553 413.018" stroke="black" stroke-width="1.58569" stroke-linecap="round" stroke-linejoin="round"/>
<path d="M347.583 156.201C344.961 175.229 343.714 181.022 349.697 190.578C355.68 200.135 361.875 214.638 350.944 224.745H299.864V154.742L347.583 156.201Z" fill="black" stroke="black" stroke-width="1.58569" stroke-linecap="round" stroke-linejoin="round"/>
<path d="M295.043 203.37C291.703 206.287 280.349 211.552 277.854 213.201C275.36 214.85 263.055 230.559 261.448 237.472C259.841 244.386 261.448 258.023 260.053 267.072C258.657 276.121 246.331 311.619 246.331 311.619L307.75 346.187C309.806 339.076 311.221 331.795 311.978 324.431C312.521 314.139 316.261 304.273 322.677 296.206C330.224 286.058 353.418 246.733 355.215 236.225C357.012 225.717 355.701 221.15 349.041 215.082C344.813 211.319 331.789 204.85 331.789 204.85L295.043 203.37Z" fill="white" stroke="black" stroke-width="1.58569" stroke-linecap="round" stroke-linejoin="round"/>
<path d="M128.164 394.392L107.022 428.643L111.821 440.884L125.458 446.867C126.033 443.455 127.237 440.178 129.01 437.205C131.822 432.681 147.404 408.959 147.404 408.959L128.164 394.392Z" fill="white" stroke="black" stroke-width="1.58569" stroke-linecap="round" stroke-linejoin="round"/>
<path d="M119.33 466.065L114.763 472.83L42.9211 430.693L47.4668 423.907L70.1104 437.205L119.33 466.065Z" fill="white"/>
<path d="M99.7299 422.173C106.073 421.475 108.187 419.086 110.174 420.482C112.162 421.877 112.965 426.084 108.969 428.727C107.513 427.904 105.899 427.399 104.233 427.247C99.8356 426.571 82.0124 424.351 78.0377 423.991C74.0629 423.632 73.3441 426.359 73.3441 426.359C73.3813 424.806 73.1671 423.256 72.7098 421.771C72.7098 421.771 73.7458 419.805 77.2766 420.397C80.8074 420.989 93.4717 422.744 99.7299 422.173Z" fill="#D6EEFF"/>
<path d="M78.0366 423.907C82.0114 424.266 99.8345 426.486 104.232 427.163C105.898 427.315 107.512 427.819 108.968 428.643C110.343 429.554 111.458 430.807 112.203 432.279C114.283 435.951 117.276 439.024 120.892 441.201C124.677 443.315 126.707 442.829 126.939 446.127C126.44 453.382 123.79 460.323 119.328 466.065L70.1082 437.205C72.0949 433.895 73.208 430.133 73.343 426.275C73.343 426.275 74.0407 423.568 78.0366 423.907Z" fill="white"/>
<path d="M72.7067 421.687C73.1639 423.172 73.3781 424.721 73.3409 426.275C73.2059 430.133 72.0928 433.895 70.106 437.205L47.4625 423.907C47.4625 423.907 53.2978 414.054 72.5586 421.285C72.5586 421.285 72.6221 421.433 72.7067 421.687Z" fill="white"/>
<path d="M119.33 466.065L70.1104 437.205L47.4668 423.907L42.9211 430.693L114.763 472.83L119.33 466.065Z" stroke="black" stroke-width="1.58569" stroke-linecap="round" stroke-linejoin="round"/>
<path d="M47.4625 423.907C47.4625 423.907 53.2978 414.054 72.5586 421.285C72.5586 421.285 72.5587 421.433 72.7067 421.687C73.1639 423.172 73.3781 424.721 73.3409 426.275C73.2059 430.133 72.0928 433.895 70.106 437.205" stroke="black" stroke-width="1.58569" stroke-linecap="round" stroke-linejoin="round"/>
<path d="M73.4496 426.275C73.4496 426.275 74.1472 423.568 78.1432 423.907C82.1391 424.245 99.9411 426.486 104.339 427.163C106.004 427.315 107.619 427.819 109.075 428.643C110.45 429.554 111.565 430.807 112.309 432.279C114.39 435.951 117.383 439.024 120.999 441.201C124.784 443.315 126.813 442.829 127.046 446.127C126.547 453.382 123.897 460.323 119.434 466.065" stroke="black" stroke-width="1.58569" stroke-linecap="round" stroke-linejoin="round"/>
<path d="M72.7098 421.687C72.7098 421.687 73.7458 419.721 77.2766 420.313C80.8074 420.905 93.4717 422.744 99.7299 422.088C105.988 421.433 108.187 419.002 110.174 420.397C112.162 421.793 112.965 426 108.969 428.643" stroke="black" stroke-width="1.58569" stroke-linecap="round" stroke-linejoin="round"/>
<path d="M82.3489 428.03C82.3692 428.246 82.3464 428.465 82.2818 428.673C82.2172 428.881 82.1122 429.074 81.9726 429.241C81.8331 429.408 81.6618 429.546 81.4687 429.646C81.2756 429.747 81.0646 429.808 80.8477 429.827C80.4077 429.868 79.9693 429.733 79.6285 429.452C79.2877 429.17 79.0723 428.765 79.0295 428.326L78.2895 419.869C78.2538 419.643 78.265 419.412 78.3222 419.19C78.3795 418.969 78.4818 418.761 78.6225 418.581C78.7633 418.4 78.9396 418.251 79.1405 418.141C79.3414 418.032 79.5627 417.965 79.7906 417.945C80.2293 417.915 80.6622 418.057 80.9977 418.342C81.3332 418.626 81.5447 419.029 81.5877 419.467L82.3489 428.03Z" fill="white" stroke="black" stroke-width="1.58569" stroke-linecap="round" stroke-linejoin="round"/>
<path d="M89.3252 429.298C89.3551 429.739 89.2134 430.175 88.9297 430.513C88.646 430.852 88.2422 431.068 87.8029 431.116C87.363 431.152 86.9271 431.011 86.5904 430.726C86.2537 430.441 86.0436 430.034 86.0059 429.594L85.1179 420.334C85.0976 420.115 85.1211 419.895 85.1869 419.686C85.2528 419.477 85.3598 419.283 85.5016 419.115C85.6433 418.948 85.8171 418.811 86.0126 418.711C86.2081 418.612 86.4214 418.553 86.6401 418.537C86.8585 418.516 87.0787 418.54 87.2879 418.606C87.4971 418.672 87.6911 418.779 87.8584 418.92C88.0257 419.062 88.1632 419.236 88.2626 419.431C88.362 419.627 88.4214 419.84 88.4373 420.059L89.3252 429.298Z" fill="white" stroke="black" stroke-width="1.58569" stroke-linecap="round" stroke-linejoin="round"/>
<path d="M96.2825 430.63C96.3028 430.85 96.2794 431.071 96.2138 431.281C96.1482 431.492 96.0415 431.687 95.9 431.856C95.7585 432.025 95.585 432.165 95.3893 432.266C95.1937 432.368 94.9799 432.43 94.7603 432.448C94.3216 432.478 93.8887 432.336 93.5532 432.051C93.2177 431.767 93.006 431.364 92.9631 430.926L91.9483 420.947C91.928 420.727 91.9513 420.506 92.0169 420.296C92.0826 420.085 92.1892 419.89 92.3308 419.721C92.4723 419.552 92.6458 419.412 92.8414 419.311C93.037 419.209 93.2508 419.147 93.4705 419.129C93.9091 419.099 94.3421 419.241 94.6775 419.526C95.013 419.81 95.2247 420.213 95.2677 420.651L96.2825 430.63Z" fill="white" stroke="black" stroke-width="1.58569" stroke-linecap="round" stroke-linejoin="round"/>
<path d="M103.24 431.835C103.26 432.055 103.237 432.276 103.171 432.486C103.105 432.697 102.999 432.892 102.857 433.061C102.716 433.23 102.542 433.37 102.346 433.471C102.151 433.573 101.937 433.635 101.717 433.653C101.277 433.689 100.842 433.548 100.505 433.263C100.168 432.978 99.958 432.571 99.9203 432.131L98.7785 421.433C98.7582 421.214 98.7815 420.992 98.8471 420.782C98.9128 420.571 99.0194 420.376 99.161 420.207C99.3025 420.038 99.4761 419.899 99.6717 419.797C99.8673 419.695 100.081 419.633 100.301 419.615C100.519 419.595 100.739 419.618 100.949 419.684C101.158 419.75 101.352 419.857 101.519 419.999C101.686 420.14 101.824 420.314 101.923 420.51C102.023 420.705 102.082 420.918 102.098 421.137L103.24 431.835Z" fill="white" stroke="black" stroke-width="1.58569" stroke-linecap="round" stroke-linejoin="round"/>
<path d="M175.419 304.431L125.967 398.388L154.001 420.334L199.564 350.056C199.564 350.056 236.077 365.088 244.195 365.088H285.148C289.017 365.088 304.324 362.467 307.75 346.272C309.462 338.089 310.963 317.56 283.119 304.515L175.419 304.431Z" fill="white" stroke="black" stroke-width="1.58569" stroke-linecap="round" stroke-linejoin="round"/>
<path d="M199.565 350.056C199.565 350.056 202.335 334.981 195.696 322.951" stroke="black" stroke-width="1.58569" stroke-linecap="round" stroke-linejoin="round"/>
<path d="M130.344 390.079L158.76 413.018" stroke="black" stroke-width="1.58569" stroke-linecap="round" stroke-linejoin="round"/>
<path d="M326.651 175.039C326.008 181.006 325.761 187.01 325.911 193.01C326.579 197.516 328.676 201.688 331.894 204.913C331.894 204.913 323.057 219.396 302.76 215.611C293.943 213.962 293.077 206.012 294.303 204.173C295.529 202.334 303.436 196.371 303.436 175.039H326.651Z" fill="white"/>
<path d="M325.805 189.141C325.805 182.798 326.651 175.039 326.651 175.039H303.394C303.394 196.371 295.55 202.334 294.261 204.173C293.909 205.048 293.751 205.989 293.799 206.931C293.846 207.872 294.097 208.793 294.536 209.628C309.462 207.344 320.921 195.187 325.805 189.141Z" fill="#D6EEFF"/>
<path d="M326.651 175.039C326.008 181.006 325.761 187.01 325.911 193.01C326.579 197.516 328.676 201.688 331.894 204.913C331.894 204.913 323.057 219.396 302.76 215.611C293.943 213.962 293.077 206.012 294.303 204.173C295.529 202.334 303.436 196.371 303.436 175.039H326.651Z" stroke="black" stroke-width="1.58569" stroke-linecap="round" stroke-linejoin="round"/>
<path d="M289.397 123.091C273.054 132.69 257.197 157.342 286.353 161.571H295.444V123.091H289.397Z" fill="black" stroke="black" stroke-width="1.58569" stroke-linecap="round" stroke-linejoin="round"/>
<path d="M294.874 129.011C284.049 136.115 281.744 146.306 281.744 157.089C281.954 162.654 281.792 168.227 281.258 173.77C280.687 179.288 285.931 193.39 292.717 194.511C300.455 195.779 317.771 192.016 325.382 180.049C333.945 177.28 340.901 170.387 341.599 152.564C342.423 130.957 315.826 115.269 294.874 129.011Z" fill="white" stroke="black" stroke-width="1.58569" stroke-linecap="round" stroke-linejoin="round"/>
<path d="M288.278 123.853C284.663 126.58 289.293 145.249 306.186 156.031C321.747 165.99 334.94 166.73 334.94 166.73C334.94 166.73 345.215 167.174 346.928 159.901C348.627 152.627 347.823 144.993 344.646 138.233C341.469 131.473 336.106 125.982 329.422 122.648C313.882 114.212 294.917 118.863 288.278 123.853Z" fill="black" stroke="black" stroke-width="1.58569" stroke-linecap="round" stroke-linejoin="round"/>
<path d="M328.005 167.322C328.005 167.322 331.387 161.233 336.8 161.592C342.212 161.951 340.183 170.451 336.8 174.721C335.413 176.403 333.668 177.754 331.693 178.675C329.718 179.597 327.562 180.066 325.383 180.049C325.479 175.683 326.367 171.37 328.005 167.322Z" fill="white"/>
<path d="M328.005 167.322C328.005 167.322 331.387 161.233 336.8 161.592C342.212 161.951 340.183 170.451 336.8 174.721C335.413 176.403 333.668 177.754 331.693 178.675C329.718 179.597 327.562 180.066 325.383 180.049" stroke="black" stroke-width="1.58569" stroke-linecap="round" stroke-linejoin="round"/>
<path d="M306.691 163.727C306.588 164.173 306.361 164.58 306.037 164.903C305.712 165.225 305.303 165.449 304.857 165.55C304.411 165.65 303.946 165.623 303.515 165.471C303.083 165.319 302.704 165.048 302.419 164.69C302.135 164.332 301.957 163.901 301.906 163.446C301.856 162.992 301.935 162.532 302.133 162.12C302.332 161.709 302.643 161.361 303.031 161.118C303.418 160.875 303.866 160.746 304.323 160.746C305.029 160.836 305.671 161.198 306.114 161.755C306.556 162.312 306.763 163.02 306.691 163.727Z" fill="black"/>
<path d="M287.136 163.727C287.136 165.186 286.269 166.37 285.212 166.37C284.155 166.37 283.309 165.186 283.309 163.727C283.309 162.269 284.155 161.106 285.212 161.106C286.269 161.106 287.136 162.29 287.136 163.727Z" fill="black"/>
<path d="M290.729 175.905C290.729 175.905 289.144 175.017 289.968 172.375" stroke="black" stroke-width="1.58569" stroke-linecap="round" stroke-linejoin="round"/>
<path d="M290.222 183.263C293.483 184.106 296.945 183.635 299.863 181.952" stroke="#CD375F" stroke-width="1.58569" stroke-linecap="round" stroke-linejoin="round"/>
<path d="M300.475 156.201C300.475 156.201 302.97 154.89 308.932 156.201" stroke="black" stroke-width="1.58569" stroke-linecap="round" stroke-linejoin="round"/>
<path d="M287.138 155.609C286.045 155.047 284.836 154.75 283.607 154.742" stroke="black" stroke-width="1.58569" stroke-linecap="round" stroke-linejoin="round"/>
<path d="M281.216 190.811H290.223C291.142 190.767 292.06 190.907 292.924 191.223C293.788 191.539 294.581 192.024 295.255 192.65C296.629 193.982 299.991 196.477 300.773 197.111C301.555 197.746 302.887 198.401 302.718 199.056C302.113 199.801 301.272 200.317 300.335 200.521C299.398 200.724 298.419 200.603 297.559 200.177C294.769 199.056 293.331 198.063 292.506 197.661C291.365 197.435 290.202 197.329 289.039 197.344V209.712C289.039 210.621 283.098 217.26 282.041 217.873C280.389 218.287 278.661 218.287 277.009 217.873C276.269 217.641 271.195 216.288 271.195 216.288C271.195 216.288 261.342 249.777 259.313 256.881C257.283 263.985 247.219 269.249 241.046 268.594C234.872 267.939 234.026 257.431 234.703 252.631C235.379 247.832 262.843 205.103 264.302 203.412C265.761 201.72 279.863 190.811 281.216 190.811Z" fill="white" stroke="black" stroke-width="1.58569" stroke-linecap="round" stroke-linejoin="round"/>
<path d="M274.136 298.912H225.445L229.737 304.452H278.428L274.136 298.912Z" fill="#D6EEFF" stroke="black" stroke-width="1.58569" stroke-linecap="round" stroke-linejoin="round"/>
<path d="M229.733 304.452H143.958L121.124 232.779H206.899L229.733 304.452Z" fill="white" stroke="black" stroke-width="1.58569" stroke-linecap="round" stroke-linejoin="round"/>
<path d="M173.071 276.84L169.815 275.043C162.056 270.814 161.21 267.685 160.893 266.586C160.665 266.002 160.588 265.37 160.668 264.748C160.748 264.126 160.983 263.535 161.352 263.028C161.72 262.52 162.21 262.114 162.776 261.845C163.342 261.577 163.967 261.454 164.593 261.49C165.518 261.527 166.427 261.747 167.265 262.139C168.104 262.532 168.856 263.087 169.477 263.774C169.773 263.064 170.281 262.463 170.933 262.054C171.584 261.646 172.346 261.448 173.113 261.49C174.589 261.567 176.004 262.098 177.166 263.01C178.328 263.922 179.179 265.171 179.604 266.586C179.921 267.77 180.767 270.814 175.376 275.043L173.071 276.84Z" fill="#12D3CF"/>
<path d="M325.381 262.822L321.999 286.29L268.741 296.122C268.741 296.122 258.635 283.796 257.81 283.056C256.986 282.316 248.402 280.941 247.239 280.941C243.208 282.42 239.323 284.267 235.632 286.46C234.173 287.517 231.763 295.403 231.403 296.227C231.044 297.052 230.706 298.997 232.439 298.997H243.158C244.194 298.997 254.089 306.524 256.034 308.046C257.979 309.568 260.39 311.577 269.988 309.568C278.149 309.928 321.787 309.695 328.426 309.568C335.065 309.441 340.139 308.088 341.894 301.83C343.649 295.572 352.127 262.991 352.127 262.991L325.381 262.822Z" fill="white"/>
<path d="M323.797 273.753C331.38 276.973 339.346 279.204 347.498 280.392L352.107 262.822H325.383L323.797 273.753Z" fill="#D6EEFF"/>
<path d="M325.381 262.822L321.999 286.29L268.741 296.122C268.741 296.122 258.635 283.796 257.81 283.056C256.986 282.316 248.402 280.941 247.239 280.941C243.208 282.42 239.323 284.267 235.632 286.46C234.173 287.517 231.763 295.403 231.403 296.227C231.044 297.052 230.706 298.997 232.439 298.997H243.158C244.194 298.997 254.089 306.524 256.034 308.046C257.979 309.568 260.39 311.577 269.988 309.568C278.149 309.928 321.787 309.695 328.426 309.568C335.065 309.441 340.139 308.088 341.894 301.83C343.649 295.572 352.127 262.991 352.127 262.991L325.381 262.822Z" stroke="black" stroke-width="1.58569" stroke-linecap="round" stroke-linejoin="round"/>
<path d="M330.351 241.468L328.385 267.896C338.235 268.705 348.135 268.705 357.984 267.896C357.984 267.896 360.395 241.468 355.765 223.709C352.382 224.005 331.662 218.656 330.351 241.468Z" fill="white"/>
<path d="M330.351 241.468L328.385 267.896C338.235 268.705 348.135 268.705 357.984 267.896C357.984 267.896 360.395 241.468 355.765 223.709" stroke="black" stroke-width="1.58569" stroke-linecap="round" stroke-linejoin="round"/>
<path d="M362.805 229.776L357.52 234.153C357.52 234.153 380.501 243.16 372.214 267.495C363.122 294.113 322.952 303.437 284.219 317.306C245.486 331.176 216.563 356.779 206.203 392.552C196.498 425.873 211.594 459.194 239.841 463.612C246.775 462.682 367.499 442.47 367.499 442.47L399.043 286.565C400.418 244.576 362.805 229.776 362.805 229.776Z" fill="white"/>
<path d="M246.329 464.056C213.96 464.056 195.778 428.262 206.158 392.489C216.539 356.716 245.441 331.176 284.174 317.243C322.907 303.31 363.078 293.986 372.169 267.431C380.457 243.096 357.475 234.09 357.475 234.09" stroke="black" stroke-width="1.58569" stroke-linecap="round" stroke-linejoin="round"/>
<path d="M446.105 141.38C446.109 144.146 445.293 146.85 443.759 149.152C442.225 151.453 440.042 153.248 437.488 154.308C434.933 155.369 432.122 155.647 429.409 155.109C426.696 154.57 424.204 153.239 422.248 151.283C420.292 149.327 418.961 146.835 418.422 144.122C417.884 141.409 418.162 138.598 419.223 136.043C420.283 133.489 422.078 131.306 424.379 129.772C426.68 128.238 429.385 127.422 432.151 127.426C435.85 127.431 439.396 128.903 442.012 131.519C444.628 134.135 446.1 137.681 446.105 141.38Z" fill="white" stroke="black" stroke-width="1.58569" stroke-linejoin="round"/>
<path d="M432.153 160.197V165.398" stroke="#3FA9F5" stroke-width="1.58569" stroke-linecap="round" stroke-linejoin="round"/>
<path d="M441.56 157.681L444.139 162.184" stroke="#3FA9F5" stroke-width="1.58569" stroke-linecap="round" stroke-linejoin="round"/>
<path d="M448.432 150.788L452.935 153.389" stroke="#3FA9F5" stroke-width="1.58569" stroke-linecap="round" stroke-linejoin="round"/>
<path d="M450.946 141.38H456.147" stroke="black" stroke-width="1.58569" stroke-linecap="round" stroke-linejoin="round"/>
<path d="M448.432 131.971L452.935 129.371" stroke="black" stroke-width="1.58569" stroke-linecap="round" stroke-linejoin="round"/>
<path d="M441.56 125.1L444.139 120.597" stroke="black" stroke-width="1.58569" stroke-linecap="round" stroke-linejoin="round"/>
<path d="M432.153 122.563V117.383" stroke="black" stroke-width="1.58569" stroke-linecap="round" stroke-linejoin="round"/>
<path d="M422.745 125.1L420.144 120.597" stroke="black" stroke-width="1.58569" stroke-linecap="round" stroke-linejoin="round"/>
<path d="M415.853 131.971L411.349 129.371" stroke="black" stroke-width="1.58569" stroke-linecap="round" stroke-linejoin="round"/>
<path d="M413.333 141.38H408.132" stroke="black" stroke-width="1.58569" stroke-linecap="round" stroke-linejoin="round"/>
<path d="M415.853 150.788L411.349 153.389" stroke="#3FA9F5" stroke-width="1.58569" stroke-linecap="round" stroke-linejoin="round"/>
<path d="M422.745 157.681L420.144 162.184" stroke="#3FA9F5" stroke-width="1.58569" stroke-linecap="round" stroke-linejoin="round"/>
<path d="M432.153 0V108.989" stroke="black" stroke-width="1.58569" stroke-linejoin="round"/>
<path d="M389.064 144.593C380.924 144.593 379.718 140.767 386.378 136.136L420.037 112.541C423.663 110.251 427.863 109.036 432.152 109.036C436.44 109.036 440.641 110.251 444.267 112.541L477.904 136.136C484.564 140.809 483.359 144.593 475.219 144.593H389.064Z" fill="white" stroke="black" stroke-width="1.58569" stroke-linejoin="round"/>
<path d="M423.292 416.549C414.159 410.206 419.677 399.868 415.448 392.996C411.22 386.125 413.947 379.042 418.281 374.518C422.616 369.993 423.673 366.251 420.607 359.845C417.542 353.439 421.009 345.553 423.884 341.98C426.76 338.407 433.673 333.523 436.57 318.215C439.466 302.908 459.827 296.016 459.827 296.016C459.827 296.016 473.062 313.226 466.93 327.455C460.799 341.684 463.822 349.612 464.224 354.2C464.626 358.788 463.125 367.245 457.015 370.881C450.904 374.518 449.72 378.197 450.799 384.391C451.877 390.586 450.228 397.944 442.891 401.305C435.555 404.667 434.392 416.38 423.292 416.549Z" fill="#B7EEED" stroke="black" stroke-width="1.58569" stroke-linecap="round" stroke-linejoin="round"/>
<path d="M423.295 416.549L459.851 296.016" stroke="black" stroke-width="1.58569" stroke-linecap="round" stroke-linejoin="round"/>
<path d="M429.657 395.576L422.215 381.114" stroke="black" stroke-width="1.58569" stroke-linecap="round" stroke-linejoin="round"/>
<path d="M431.009 391.453L446.105 385.491" stroke="black" stroke-width="1.58569" stroke-linecap="round" stroke-linejoin="round"/>
<path d="M450.755 326.355L463.166 321.45" stroke="black" stroke-width="1.58569" stroke-linecap="round" stroke-linejoin="round"/>
<path d="M440.251 360.86L460.231 352.974" stroke="black" stroke-width="1.58569" stroke-linecap="round" stroke-linejoin="round"/>
<path d="M439.235 363.989L429.869 345.785" stroke="black" stroke-width="1.58569" stroke-linecap="round" stroke-linejoin="round"/>
<path d="M449.153 331.324L443.402 320.161" stroke="black" stroke-width="1.58569" stroke-linecap="round" stroke-linejoin="round"/>
<path d="M421.625 410.693C430.082 404.963 425.092 395.343 429.046 389.043C433 382.742 430.568 376.209 426.615 372.002C422.661 367.795 421.709 364.348 424.5 358.471C427.291 352.593 424.268 345.299 421.646 341.98C419.024 338.66 412.682 334.03 410.25 319.97C407.819 305.911 388.918 299.335 388.918 299.335C388.918 299.335 376.57 315.065 382.088 328.216C387.607 341.366 384.774 348.682 384.372 352.889C383.97 357.096 385.26 364.898 390.863 368.323C396.465 371.748 397.501 375.131 396.465 380.818C395.429 386.506 396.867 393.314 403.59 396.485C410.314 399.656 411.392 410.439 421.625 410.693Z" fill="#B7EEED" stroke="black" stroke-width="1.58569" stroke-linecap="round" stroke-linejoin="round"/>
<path d="M421.625 410.693L389.002 299.335" stroke="black" stroke-width="1.58569" stroke-linecap="round" stroke-linejoin="round"/>
<path d="M415.937 391.305L422.914 378.049" stroke="black" stroke-width="1.58569" stroke-linecap="round" stroke-linejoin="round"/>
<path d="M414.729 387.499L400.86 381.875" stroke="black" stroke-width="1.58569" stroke-linecap="round" stroke-linejoin="round"/>
<path d="M397.098 327.349L385.723 322.74" stroke="black" stroke-width="1.58569" stroke-linecap="round" stroke-linejoin="round"/>
<path d="M406.485 359.232L388.154 351.79" stroke="black" stroke-width="1.58569" stroke-linecap="round" stroke-linejoin="round"/>
<path d="M407.394 362.128L416.168 345.426" stroke="black" stroke-width="1.58569" stroke-linecap="round" stroke-linejoin="round"/>
<path d="M398.536 331.937L403.928 321.725" stroke="black" stroke-width="1.58569" stroke-linecap="round" stroke-linejoin="round"/>
<path d="M412.109 412.511C415.175 407.606 410.375 403.779 410.967 399.593C411.177 397.831 410.775 396.049 409.828 394.548C408.882 393.047 407.447 391.917 405.766 391.347C404.377 390.969 403.177 390.09 402.396 388.881C401.615 387.671 401.31 386.215 401.538 384.793C401.665 381.072 398.366 378.028 396.252 376.907C391.716 375.293 387.847 372.213 385.258 368.154C380.755 361.452 369.443 362.382 369.443 362.382C369.443 362.382 366.695 373.397 372.594 378.916C376.189 382.121 378.608 386.438 379.465 391.178C379.96 392.764 380.857 394.195 382.068 395.332C383.28 396.47 384.765 397.275 386.379 397.669C387.814 397.661 389.202 398.186 390.272 399.144C391.343 400.101 392.02 401.421 392.172 402.849C392.466 404.6 393.354 406.196 394.686 407.37C396.018 408.545 397.713 409.225 399.487 409.297C403.779 409.488 406.76 414.752 412.109 412.511Z" fill="#B7EEED" stroke="black" stroke-width="1.58569" stroke-linecap="round" stroke-linejoin="round"/>
<path d="M412.108 412.511L369.506 362.403" stroke="black" stroke-width="1.58569" stroke-linecap="round" stroke-linejoin="round"/>
<path d="M404.709 403.8L405.259 395.322" stroke="black" stroke-width="1.58569" stroke-linecap="round" stroke-linejoin="round"/>
<path d="M403.206 402.109L394.728 402.384" stroke="black" stroke-width="1.58569" stroke-linecap="round" stroke-linejoin="round"/>
<path d="M380.182 375.025L373.226 375.258" stroke="black" stroke-width="1.58569" stroke-linecap="round" stroke-linejoin="round"/>
<path d="M392.405 389.36L381.2 389.741" stroke="black" stroke-width="1.58569" stroke-linecap="round" stroke-linejoin="round"/>
<path d="M393.548 390.65L394.246 379.994" stroke="black" stroke-width="1.58569" stroke-linecap="round" stroke-linejoin="round"/>
<path d="M381.981 377.076L382.425 370.543" stroke="black" stroke-width="1.58569" stroke-linecap="round" stroke-linejoin="round"/>
<path d="M432.088 412.511C429.022 407.606 433.842 403.779 433.251 399.593C433.035 397.833 433.432 396.052 434.376 394.55C435.319 393.048 436.751 391.917 438.43 391.347C439.82 390.969 441.02 390.09 441.801 388.881C442.581 387.671 442.887 386.215 442.659 384.793C442.532 381.072 445.809 378.028 447.945 376.907C452.481 375.293 456.349 372.213 458.939 368.154C463.442 361.452 474.732 362.382 474.732 362.382C474.732 362.382 477.502 373.397 471.603 378.916C468.007 382.121 465.588 386.438 464.732 391.178C464.234 392.767 463.334 394.199 462.119 395.337C460.904 396.474 459.415 397.278 457.797 397.669C456.363 397.661 454.978 398.188 453.911 399.145C452.844 400.103 452.172 401.423 452.025 402.849C451.727 404.598 450.838 406.192 449.507 407.366C448.176 408.539 446.483 409.221 444.71 409.297C440.439 409.488 437.458 414.752 432.088 412.511Z" fill="#B7EEED" stroke="black" stroke-width="1.58569" stroke-linecap="round" stroke-linejoin="round"/>
<path d="M432.087 412.511L474.689 362.403" stroke="black" stroke-width="1.58569" stroke-linecap="round" stroke-linejoin="round"/>
<path d="M439.508 403.8L438.958 395.322" stroke="black" stroke-width="1.58569" stroke-linecap="round" stroke-linejoin="round"/>
<path d="M441.011 402.109L449.489 402.384" stroke="black" stroke-width="1.58569" stroke-linecap="round" stroke-linejoin="round"/>
<path d="M464.037 375.025L470.993 375.258" stroke="black" stroke-width="1.58569" stroke-linecap="round" stroke-linejoin="round"/>
<path d="M451.813 389.36L463.018 389.741" stroke="black" stroke-width="1.58569" stroke-linecap="round" stroke-linejoin="round"/>
<path d="M450.674 390.65L449.976 379.994" stroke="black" stroke-width="1.58569" stroke-linecap="round" stroke-linejoin="round"/>
<path d="M462.217 377.076L461.794 370.543" stroke="black" stroke-width="1.58569" stroke-linecap="round" stroke-linejoin="round"/>
<path d="M447.205 448.453H396.992L388.894 404.413H455.324L447.205 448.453Z" fill="white" stroke="black" stroke-width="1.58569" stroke-linecap="round" stroke-linejoin="round"/>
<path d="M394.518 434.837H388.217V468.2H394.518V434.837Z" fill="white" stroke="black" stroke-width="1.58569" stroke-linecap="round" stroke-linejoin="round"/>
<path d="M456 434.837H449.699V468.2H456V434.837Z" fill="white" stroke="black" stroke-width="1.58569" stroke-linecap="round" stroke-linejoin="round"/>
<path d="M449.7 448.453H394.518V454.267H449.7V448.453Z" fill="white" stroke="black" stroke-width="1.58569" stroke-linecap="round" stroke-linejoin="round"/>
<path d="M425.26 434.837H418.959V468.2H425.26V434.837Z" fill="white" stroke="black" stroke-width="1.58569" stroke-linecap="round" stroke-linejoin="round"/>
</g>
<defs>
<clipPath id="clip0_1228_54">
<rect width="483" height="474.839" fill="white"/>
</clipPath>
</defs>
</svg>
